<svg width="308" height="55" viewBox="0 0 308 55" fill="none" xmlns="http://www.w3.org/2000/svg">
<mask id="path-1-outside-1" maskUnits="userSpaceOnUse" x="79" y="3" width="48" height="49" fill="black">
<rect fill="white" x="79" y="3" width="48" height="49"/>
<path fill-rule="evenodd" clip-rule="evenodd" d="M110.566 4.05459C111.05 4.12382 112.032 4.39283 112.549 4.59794C113.555 4.99736 113.75 5.09186 113.75 5.17911C113.75 5.23009 113.806 5.27171 113.874 5.27171C113.941 5.27171 114.268 5.47124 114.599 5.71524L115.201 6.15876L115.121 6.98974C115.077 7.44679 114.999 7.87407 114.948 7.93928C114.896 8.00449 114.816 8.31191 114.769 8.62241C114.722 8.93304 114.636 9.21627 114.578 9.25184C114.519 9.28753 114.471 9.42363 114.471 9.5544C114.471 9.76544 114.272 10.2547 113.669 11.5197C113.446 11.9888 113.51 12.0994 114.064 12.2021C114.304 12.2465 114.589 12.33 114.696 12.3876C114.804 12.4452 115.108 12.5806 115.373 12.6887C116.293 13.0646 117.301 13.5997 118.119 14.1467C118.571 14.4495 119.023 14.7505 119.122 14.8157C119.962 15.366 122.403 17.7927 122.403 18.077C122.403 18.1416 122.446 18.1946 122.497 18.1946C122.549 18.1946 122.686 18.3528 122.802 18.546C122.918 18.7393 123.078 18.9684 123.158 19.0552C123.455 19.3759 124.807 22.0007 124.807 22.2557C124.807 22.3478 124.846 22.4624 124.895 22.5101C125.129 22.741 125.614 24.6236 125.829 26.138C126.29 29.3784 125.815 32.5924 124.431 35.6014C124.241 36.0135 124.086 36.3958 124.086 36.451C124.086 36.5062 124.045 36.5692 123.995 36.591C123.946 36.6127 123.771 36.8838 123.607 37.1936C123.443 37.5034 123.268 37.7568 123.217 37.7568C123.166 37.7568 123.124 37.8142 123.124 37.8843C123.124 38.2694 120.541 41.0624 119.399 41.9127C119.101 42.1341 118.831 42.3481 118.798 42.3884C118.653 42.5653 114.946 45.226 114.844 45.226C114.782 45.226 114.714 45.2659 114.692 45.3149C114.64 45.4292 112.619 46.749 112.34 46.8507C112.223 46.893 112.101 46.9584 112.068 46.9957C111.981 47.0942 111.603 47.313 110.986 47.6222C110.689 47.7713 110.418 47.9244 110.385 47.9623C110.352 48.0001 110.055 48.1603 109.724 48.3181C109.394 48.4758 109.105 48.6449 109.083 48.6938C109.061 48.7427 108.971 48.7827 108.883 48.7827C108.795 48.7827 108.461 48.9104 108.142 49.0664C106.919 49.664 105.328 50.3056 104.256 50.6332C103.893 50.7443 103.473 50.8895 103.324 50.9559C103.114 51.0492 102.814 51.0014 102.002 50.7449C101.424 50.5625 100.781 50.3399 100.573 50.2501C100.364 50.1604 100.118 50.0869 100.026 50.0869C99.9333 50.0869 99.8063 50.0423 99.7436 49.9879C99.6807 49.9335 99.359 49.7914 99.0285 49.6722C97.3544 49.0681 93.76 47.3087 92.3586 46.4074C92.2595 46.3436 92.0972 46.2557 91.9981 46.212C91.8989 46.1683 91.7908 46.1019 91.7577 46.0645C91.6527 45.9459 90.9291 45.4631 90.8562 45.4631C90.8177 45.4631 90.7208 45.4102 90.641 45.3455C90.5612 45.2809 90.0542 44.911 89.5145 44.5235C88.4835 43.7834 88.2552 43.6015 87.2722 42.7362C86.0136 41.6286 83.7058 39.2581 83.7058 39.073C83.7058 39.0121 83.6636 38.9444 83.612 38.9226C83.487 38.8699 82.3839 37.2983 82.3839 37.1729C82.3839 37.1187 82.3027 37.0081 82.2036 36.9269C82.1045 36.8457 82.0233 36.6791 82.0233 36.5567C82.0233 36.4343 81.9736 36.3341 81.9126 36.3341C81.8518 36.3341 81.7664 36.174 81.7229 35.9784C81.6794 35.7828 81.5939 35.6227 81.5331 35.6227C81.4722 35.6227 81.4224 35.5642 81.4224 35.4924C81.4224 35.4208 81.3479 35.194 81.2568 34.9886C80.9145 34.2164 80.5102 32.8987 80.2147 31.5917C79.9601 30.4659 79.9233 27.1348 80.1507 25.8105C80.345 24.6792 80.6356 23.5421 80.8283 23.159C80.8816 23.0529 80.962 22.7729 81.007 22.5366C81.0519 22.3003 81.1368 22.107 81.1954 22.107C81.2542 22.107 81.3023 22.0259 81.3023 21.9267C81.3023 21.7074 82.022 20.2125 82.2327 19.9942C82.3158 19.908 82.3839 19.7612 82.3839 19.6682C82.3839 19.575 82.4379 19.4987 82.504 19.4987C82.5701 19.4987 82.6242 19.4449 82.6242 19.379C82.6242 19.2278 83.8009 17.6529 84.3293 17.0968C84.5483 16.8664 84.8395 16.5523 84.9765 16.3989C85.1136 16.2454 85.4651 15.9248 85.7576 15.6865C86.0503 15.4482 86.4248 15.1424 86.5901 15.007C86.7553 14.8715 86.9452 14.7162 87.0122 14.6618C87.6193 14.1672 89.7729 12.9824 90.6161 12.6791C90.9465 12.5602 91.271 12.4249 91.3371 12.3785C91.4032 12.332 91.6466 12.2549 91.8779 12.2072C92.1093 12.1594 92.3526 12.0867 92.4187 12.0457C92.8142 11.8004 96.1353 11.3253 97.4866 11.3207L98.2282 11.3182L97.8335 10.5179C96.5784 7.97366 96.4396 6.2823 97.363 4.78609C98.279 3.30186 100.281 4.14505 99.8068 5.81542C99.7251 6.10328 99.6112 6.33874 99.5537 6.33874C99.4077 6.33874 99.4221 7.49385 99.5693 7.5836C99.6354 7.62391 99.6895 7.76571 99.6895 7.89873C99.6895 8.20366 100.188 9.33543 100.761 10.3316C101.087 10.8987 101.181 10.8612 101.547 10.0141C101.674 9.72062 101.838 9.40051 101.911 9.3027C101.985 9.20489 102.149 8.92486 102.277 8.68027C102.404 8.4358 102.55 8.23568 102.601 8.23568C102.652 8.23568 102.694 8.17663 102.694 8.10455C102.694 7.8155 104.71 5.62738 104.976 5.62738C105.032 5.62738 105.095 5.5853 105.118 5.53384C105.165 5.42358 106.202 4.80103 106.72 4.57233C107.765 4.11043 109.408 3.8892 110.566 4.05459ZM108.523 6.81297C108.482 6.87818 108.338 6.93153 108.203 6.93153C107.737 6.93153 106.545 7.72018 105.792 8.52686C105.189 9.17229 105.158 9.21212 105.065 9.4509C105.021 9.56507 104.929 9.65838 104.861 9.65838C104.793 9.65838 104.737 9.73461 104.737 9.8278C104.737 9.92087 104.669 10.0686 104.587 10.156C104.329 10.4287 104.016 11.0481 104.016 11.2861C104.016 11.523 104.756 11.9173 105.999 12.3422C106.668 12.571 108.892 12.6449 109.038 12.4432C109.085 12.3787 109.332 12.2213 109.586 12.0933C109.841 11.9653 110.247 11.6384 110.488 11.3669C110.926 10.8731 111.707 9.52903 111.708 9.265C111.708 9.18794 111.784 8.98295 111.876 8.80962C111.967 8.63617 112.078 8.23603 112.122 7.92043L112.201 7.34649L111.713 7.13901C111.445 7.02495 111.12 6.93153 110.992 6.93153C110.865 6.93153 110.727 6.87818 110.686 6.81297C110.645 6.74776 110.158 6.69441 109.604 6.69441C109.05 6.69441 108.563 6.74776 108.523 6.81297ZM95.4833 14.1667C94.7892 14.2371 94.0591 14.3438 93.8609 14.4038C92.6855 14.759 91.9533 15.017 91.3609 15.2842C90.9928 15.4503 90.634 15.5863 90.5637 15.5863C90.4933 15.5863 90.4358 15.6397 90.4358 15.7049C90.4358 15.7701 90.3681 15.8235 90.2856 15.8237C90.1353 15.824 89.0655 16.5029 88.2726 17.1013C87.2269 17.8901 85.0278 20.3125 85.0278 20.6753C85.0278 20.7455 84.9773 20.8029 84.9156 20.8029C84.854 20.8029 84.7657 20.9229 84.7193 21.0697C84.6728 21.2164 84.6016 21.3631 84.5609 21.3957C84.2297 21.6613 82.9831 24.9594 82.9842 25.5672C82.9845 25.7423 82.9262 26.0357 82.8546 26.2192C82.6776 26.6732 82.6826 29.9984 82.8616 30.7823C83.3122 32.757 83.5393 33.4478 84.1797 34.7928C85.0938 36.713 87.0254 38.9708 89.66 41.199C90.162 41.6236 91.9833 42.9513 92.3837 43.1848C92.5682 43.2922 92.7192 43.422 92.7192 43.4732C92.7192 43.5243 92.7738 43.5662 92.8407 43.5662C92.9075 43.5662 93.443 43.8596 94.0307 44.2182C94.6183 44.5769 95.1541 44.8703 95.2211 44.8703C95.2882 44.8703 95.361 44.9103 95.3831 44.9592C95.423 45.0478 97.218 45.9435 98.2473 46.3884C98.5448 46.517 99.0856 46.7557 99.4491 46.9191C99.8127 47.0824 100.353 47.2991 100.651 47.4007C100.948 47.5023 101.566 47.7221 102.024 47.889C102.84 48.1864 103.556 48.2075 103.724 47.9394C103.76 47.8816 103.873 47.8343 103.975 47.8343C104.077 47.8343 104.33 47.761 104.539 47.6714C104.747 47.5817 105.35 47.3307 105.879 47.1135C107.041 46.6362 109.997 45.1545 110.145 44.9752C110.178 44.935 110.327 44.8648 110.475 44.819C110.624 44.7732 110.746 44.6861 110.746 44.6252C110.746 44.5644 110.816 44.5146 110.903 44.5146C110.989 44.5146 111.618 44.1412 112.3 43.6847C112.982 43.2283 113.562 42.8548 113.59 42.8548C113.618 42.8548 113.706 42.7998 113.785 42.7326C113.865 42.6653 114.424 42.2519 115.027 41.8137C117.282 40.1756 118.039 39.5711 118.922 38.7052C119.791 37.8539 120.536 36.9993 120.77 36.5867C120.831 36.4804 120.912 36.3667 120.951 36.3341C121.075 36.2293 121.559 35.35 121.963 34.4964C122.309 33.7643 122.497 33.2342 122.889 31.8881C123.099 31.1681 123.294 29.4876 123.288 28.4499C123.281 27.257 123.045 25.2062 122.893 25.0166C122.838 24.9488 122.766 24.7331 122.732 24.5375C122.604 23.7933 121.665 21.6966 121.071 20.8291C120.878 20.5473 120.721 20.2889 120.721 20.2549C120.721 20.221 120.653 20.1234 120.57 20.0383C120.488 19.9532 120.339 19.7586 120.24 19.6059C119.945 19.1523 117.928 17.1901 117.506 16.9463C117.291 16.8223 117.115 16.6789 117.115 16.6277C117.115 16.5766 117.039 16.5348 116.945 16.5348C116.851 16.5348 116.757 16.4897 116.735 16.4346C116.689 16.32 116.482 16.2085 114.932 15.4608C114.315 15.1634 113.486 14.825 113.089 14.7089C112.693 14.5926 112.202 14.449 111.999 14.3898C111.463 14.2336 111.36 14.2492 110.628 14.5978C110.263 14.7713 109.875 14.9556 109.765 15.0073C109.655 15.059 109.29 15.1372 108.954 15.1812C108.617 15.2252 108.342 15.3103 108.342 15.3704C108.342 15.4305 108.682 15.8104 109.097 16.2147C110.061 17.1531 110.588 17.7492 111.11 18.491C111.339 18.817 111.568 19.1016 111.617 19.1233C111.667 19.1451 111.707 19.2346 111.707 19.3223C111.707 19.4101 111.776 19.5523 111.859 19.6385C112.111 19.8975 112.985 21.7459 113.334 22.7591C113.66 23.703 113.721 23.9688 113.994 25.6638C114.154 26.6554 114.089 28.8191 113.872 29.7541C113.697 30.503 113.018 32.5799 112.921 32.6588C112.881 32.6914 112.718 32.9848 112.558 33.3108C112.398 33.6369 112.236 33.9303 112.198 33.9629C112.159 33.9955 112.024 34.2051 111.898 34.4287C111.222 35.6238 109.084 37.5434 107.561 38.3224C106.676 38.7752 105.762 39.1519 105.338 39.239C105.107 39.2865 104.863 39.3647 104.797 39.4127C104.731 39.4607 103.959 39.5982 103.081 39.7183C101.582 39.9234 101.412 39.9251 100.281 39.746C98.8713 39.5226 98.5425 39.3461 98.372 38.7216C98.1966 38.0791 98.3334 37.5517 98.755 37.2443C99.0896 37.0001 99.2346 36.9861 101.424 36.9861C102.974 36.9861 103.794 36.9416 103.907 36.8513C104 36.7773 104.306 36.6792 104.587 36.6334C104.868 36.5878 105.097 36.5101 105.097 36.4609C105.097 36.4119 105.312 36.3084 105.573 36.2311C106.292 36.0185 107.704 35.0309 108.613 34.1049C109.059 33.6501 109.424 33.2433 109.424 33.2006C109.424 33.158 109.521 33.0198 109.641 32.8936C110.159 32.3449 110.917 30.4795 111.23 28.9834C111.385 28.2441 111.327 25.933 111.13 24.9821C110.862 23.6887 110.247 22.1955 109.483 20.9807C109.319 20.7199 109.147 20.4265 109.101 20.3287C109.055 20.2308 108.96 20.0898 108.89 20.0151C108.82 19.9404 108.628 19.704 108.462 19.4897C107.768 18.5898 106.271 17.2261 105.265 16.577C104.875 16.3259 104.53 16.0908 104.497 16.0545C104.443 15.9957 103.821 15.6667 103.213 15.3756C103.093 15.318 102.814 15.1817 102.594 15.0728C102.374 14.964 102.123 14.875 102.037 14.875C101.951 14.875 101.725 14.7953 101.536 14.6978C101.347 14.6005 101.1 14.5205 100.987 14.52C100.874 14.5196 100.658 14.4646 100.506 14.3978C100.17 14.2496 97.4634 13.9347 97.0456 13.9951C96.8803 14.019 96.1773 14.0961 95.4833 14.1667Z"/>
</mask>
<path fill-rule="evenodd" clip-rule="evenodd" d="M110.566 4.05459C111.05 4.12382 112.032 4.39283 112.549 4.59794C113.555 4.99736 113.75 5.09186 113.75 5.17911C113.75 5.23009 113.806 5.27171 113.874 5.27171C113.941 5.27171 114.268 5.47124 114.599 5.71524L115.201 6.15876L115.121 6.98974C115.077 7.44679 114.999 7.87407 114.948 7.93928C114.896 8.00449 114.816 8.31191 114.769 8.62241C114.722 8.93304 114.636 9.21627 114.578 9.25184C114.519 9.28753 114.471 9.42363 114.471 9.5544C114.471 9.76544 114.272 10.2547 113.669 11.5197C113.446 11.9888 113.51 12.0994 114.064 12.2021C114.304 12.2465 114.589 12.33 114.696 12.3876C114.804 12.4452 115.108 12.5806 115.373 12.6887C116.293 13.0646 117.301 13.5997 118.119 14.1467C118.571 14.4495 119.023 14.7505 119.122 14.8157C119.962 15.366 122.403 17.7927 122.403 18.077C122.403 18.1416 122.446 18.1946 122.497 18.1946C122.549 18.1946 122.686 18.3528 122.802 18.546C122.918 18.7393 123.078 18.9684 123.158 19.0552C123.455 19.3759 124.807 22.0007 124.807 22.2557C124.807 22.3478 124.846 22.4624 124.895 22.5101C125.129 22.741 125.614 24.6236 125.829 26.138C126.29 29.3784 125.815 32.5924 124.431 35.6014C124.241 36.0135 124.086 36.3958 124.086 36.451C124.086 36.5062 124.045 36.5692 123.995 36.591C123.946 36.6127 123.771 36.8838 123.607 37.1936C123.443 37.5034 123.268 37.7568 123.217 37.7568C123.166 37.7568 123.124 37.8142 123.124 37.8843C123.124 38.2694 120.541 41.0624 119.399 41.9127C119.101 42.1341 118.831 42.3481 118.798 42.3884C118.653 42.5653 114.946 45.226 114.844 45.226C114.782 45.226 114.714 45.2659 114.692 45.3149C114.64 45.4292 112.619 46.749 112.34 46.8507C112.223 46.893 112.101 46.9584 112.068 46.9957C111.981 47.0942 111.603 47.313 110.986 47.6222C110.689 47.7713 110.418 47.9244 110.385 47.9623C110.352 48.0001 110.055 48.1603 109.724 48.3181C109.394 48.4758 109.105 48.6449 109.083 48.6938C109.061 48.7427 108.971 48.7827 108.883 48.7827C108.795 48.7827 108.461 48.9104 108.142 49.0664C106.919 49.664 105.328 50.3056 104.256 50.6332C103.893 50.7443 103.473 50.8895 103.324 50.9559C103.114 51.0492 102.814 51.0014 102.002 50.7449C101.424 50.5625 100.781 50.3399 100.573 50.2501C100.364 50.1604 100.118 50.0869 100.026 50.0869C99.9333 50.0869 99.8063 50.0423 99.7436 49.9879C99.6807 49.9335 99.359 49.7914 99.0285 49.6722C97.3544 49.0681 93.76 47.3087 92.3586 46.4074C92.2595 46.3436 92.0972 46.2557 91.9981 46.212C91.8989 46.1683 91.7908 46.1019 91.7577 46.0645C91.6527 45.9459 90.9291 45.4631 90.8562 45.4631C90.8177 45.4631 90.7208 45.4102 90.641 45.3455C90.5612 45.2809 90.0542 44.911 89.5145 44.5235C88.4835 43.7834 88.2552 43.6015 87.2722 42.7362C86.0136 41.6286 83.7058 39.2581 83.7058 39.073C83.7058 39.0121 83.6636 38.9444 83.612 38.9226C83.487 38.8699 82.3839 37.2983 82.3839 37.1729C82.3839 37.1187 82.3027 37.0081 82.2036 36.9269C82.1045 36.8457 82.0233 36.6791 82.0233 36.5567C82.0233 36.4343 81.9736 36.3341 81.9126 36.3341C81.8518 36.3341 81.7664 36.174 81.7229 35.9784C81.6794 35.7828 81.5939 35.6227 81.5331 35.6227C81.4722 35.6227 81.4224 35.5642 81.4224 35.4924C81.4224 35.4208 81.3479 35.194 81.2568 34.9886C80.9145 34.2164 80.5102 32.8987 80.2147 31.5917C79.9601 30.4659 79.9233 27.1348 80.1507 25.8105C80.345 24.6792 80.6356 23.5421 80.8283 23.159C80.8816 23.0529 80.962 22.7729 81.007 22.5366C81.0519 22.3003 81.1368 22.107 81.1954 22.107C81.2542 22.107 81.3023 22.0259 81.3023 21.9267C81.3023 21.7074 82.022 20.2125 82.2327 19.9942C82.3158 19.908 82.3839 19.7612 82.3839 19.6682C82.3839 19.575 82.4379 19.4987 82.504 19.4987C82.5701 19.4987 82.6242 19.4449 82.6242 19.379C82.6242 19.2278 83.8009 17.6529 84.3293 17.0968C84.5483 16.8664 84.8395 16.5523 84.9765 16.3989C85.1136 16.2454 85.4651 15.9248 85.7576 15.6865C86.0503 15.4482 86.4248 15.1424 86.5901 15.007C86.7553 14.8715 86.9452 14.7162 87.0122 14.6618C87.6193 14.1672 89.7729 12.9824 90.6161 12.6791C90.9465 12.5602 91.271 12.4249 91.3371 12.3785C91.4032 12.332 91.6466 12.2549 91.8779 12.2072C92.1093 12.1594 92.3526 12.0867 92.4187 12.0457C92.8142 11.8004 96.1353 11.3253 97.4866 11.3207L98.2282 11.3182L97.8335 10.5179C96.5784 7.97366 96.4396 6.2823 97.363 4.78609C98.279 3.30186 100.281 4.14505 99.8068 5.81542C99.7251 6.10328 99.6112 6.33874 99.5537 6.33874C99.4077 6.33874 99.4221 7.49385 99.5693 7.5836C99.6354 7.62391 99.6895 7.76571 99.6895 7.89873C99.6895 8.20366 100.188 9.33543 100.761 10.3316C101.087 10.8987 101.181 10.8612 101.547 10.0141C101.674 9.72062 101.838 9.40051 101.911 9.3027C101.985 9.20489 102.149 8.92486 102.277 8.68027C102.404 8.4358 102.55 8.23568 102.601 8.23568C102.652 8.23568 102.694 8.17663 102.694 8.10455C102.694 7.8155 104.71 5.62738 104.976 5.62738C105.032 5.62738 105.095 5.5853 105.118 5.53384C105.165 5.42358 106.202 4.80103 106.72 4.57233C107.765 4.11043 109.408 3.8892 110.566 4.05459ZM108.523 6.81297C108.482 6.87818 108.338 6.93153 108.203 6.93153C107.737 6.93153 106.545 7.72018 105.792 8.52686C105.189 9.17229 105.158 9.21212 105.065 9.4509C105.021 9.56507 104.929 9.65838 104.861 9.65838C104.793 9.65838 104.737 9.73461 104.737 9.8278C104.737 9.92087 104.669 10.0686 104.587 10.156C104.329 10.4287 104.016 11.0481 104.016 11.2861C104.016 11.523 104.756 11.9173 105.999 12.3422C106.668 12.571 108.892 12.6449 109.038 12.4432C109.085 12.3787 109.332 12.2213 109.586 12.0933C109.841 11.9653 110.247 11.6384 110.488 11.3669C110.926 10.8731 111.707 9.52903 111.708 9.265C111.708 9.18794 111.784 8.98295 111.876 8.80962C111.967 8.63617 112.078 8.23603 112.122 7.92043L112.201 7.34649L111.713 7.13901C111.445 7.02495 111.12 6.93153 110.992 6.93153C110.865 6.93153 110.727 6.87818 110.686 6.81297C110.645 6.74776 110.158 6.69441 109.604 6.69441C109.05 6.69441 108.563 6.74776 108.523 6.81297ZM95.4833 14.1667C94.7892 14.2371 94.0591 14.3438 93.8609 14.4038C92.6855 14.759 91.9533 15.017 91.3609 15.2842C90.9928 15.4503 90.634 15.5863 90.5637 15.5863C90.4933 15.5863 90.4358 15.6397 90.4358 15.7049C90.4358 15.7701 90.3681 15.8235 90.2856 15.8237C90.1353 15.824 89.0655 16.5029 88.2726 17.1013C87.2269 17.8901 85.0278 20.3125 85.0278 20.6753C85.0278 20.7455 84.9773 20.8029 84.9156 20.8029C84.854 20.8029 84.7657 20.9229 84.7193 21.0697C84.6728 21.2164 84.6016 21.3631 84.5609 21.3957C84.2297 21.6613 82.9831 24.9594 82.9842 25.5672C82.9845 25.7423 82.9262 26.0357 82.8546 26.2192C82.6776 26.6732 82.6826 29.9984 82.8616 30.7823C83.3122 32.757 83.5393 33.4478 84.1797 34.7928C85.0938 36.713 87.0254 38.9708 89.66 41.199C90.162 41.6236 91.9833 42.9513 92.3837 43.1848C92.5682 43.2922 92.7192 43.422 92.7192 43.4732C92.7192 43.5243 92.7738 43.5662 92.8407 43.5662C92.9075 43.5662 93.443 43.8596 94.0307 44.2182C94.6183 44.5769 95.1541 44.8703 95.2211 44.8703C95.2882 44.8703 95.361 44.9103 95.3831 44.9592C95.423 45.0478 97.218 45.9435 98.2473 46.3884C98.5448 46.517 99.0856 46.7557 99.4491 46.9191C99.8127 47.0824 100.353 47.2991 100.651 47.4007C100.948 47.5023 101.566 47.7221 102.024 47.889C102.84 48.1864 103.556 48.2075 103.724 47.9394C103.76 47.8816 103.873 47.8343 103.975 47.8343C104.077 47.8343 104.33 47.761 104.539 47.6714C104.747 47.5817 105.35 47.3307 105.879 47.1135C107.041 46.6362 109.997 45.1545 110.145 44.9752C110.178 44.935 110.327 44.8648 110.475 44.819C110.624 44.7732 110.746 44.6861 110.746 44.6252C110.746 44.5644 110.816 44.5146 110.903 44.5146C110.989 44.5146 111.618 44.1412 112.3 43.6847C112.982 43.2283 113.562 42.8548 113.59 42.8548C113.618 42.8548 113.706 42.7998 113.785 42.7326C113.865 42.6653 114.424 42.2519 115.027 41.8137C117.282 40.1756 118.039 39.5711 118.922 38.7052C119.791 37.8539 120.536 36.9993 120.77 36.5867C120.831 36.4804 120.912 36.3667 120.951 36.3341C121.075 36.2293 121.559 35.35 121.963 34.4964C122.309 33.7643 122.497 33.2342 122.889 31.8881C123.099 31.1681 123.294 29.4876 123.288 28.4499C123.281 27.257 123.045 25.2062 122.893 25.0166C122.838 24.9488 122.766 24.7331 122.732 24.5375C122.604 23.7933 121.665 21.6966 121.071 20.8291C120.878 20.5473 120.721 20.2889 120.721 20.2549C120.721 20.221 120.653 20.1234 120.57 20.0383C120.488 19.9532 120.339 19.7586 120.24 19.6059C119.945 19.1523 117.928 17.1901 117.506 16.9463C117.291 16.8223 117.115 16.6789 117.115 16.6277C117.115 16.5766 117.039 16.5348 116.945 16.5348C116.851 16.5348 116.757 16.4897 116.735 16.4346C116.689 16.32 116.482 16.2085 114.932 15.4608C114.315 15.1634 113.486 14.825 113.089 14.7089C112.693 14.5926 112.202 14.449 111.999 14.3898C111.463 14.2336 111.36 14.2492 110.628 14.5978C110.263 14.7713 109.875 14.9556 109.765 15.0073C109.655 15.059 109.29 15.1372 108.954 15.1812C108.617 15.2252 108.342 15.3103 108.342 15.3704C108.342 15.4305 108.682 15.8104 109.097 16.2147C110.061 17.1531 110.588 17.7492 111.11 18.491C111.339 18.817 111.568 19.1016 111.617 19.1233C111.667 19.1451 111.707 19.2346 111.707 19.3223C111.707 19.4101 111.776 19.5523 111.859 19.6385C112.111 19.8975 112.985 21.7459 113.334 22.7591C113.66 23.703 113.721 23.9688 113.994 25.6638C114.154 26.6554 114.089 28.8191 113.872 29.7541C113.697 30.503 113.018 32.5799 112.921 32.6588C112.881 32.6914 112.718 32.9848 112.558 33.3108C112.398 33.6369 112.236 33.9303 112.198 33.9629C112.159 33.9955 112.024 34.2051 111.898 34.4287C111.222 35.6238 109.084 37.5434 107.561 38.3224C106.676 38.7752 105.762 39.1519 105.338 39.239C105.107 39.2865 104.863 39.3647 104.797 39.4127C104.731 39.4607 103.959 39.5982 103.081 39.7183C101.582 39.9234 101.412 39.9251 100.281 39.746C98.8713 39.5226 98.5425 39.3461 98.372 38.7216C98.1966 38.0791 98.3334 37.5517 98.755 37.2443C99.0896 37.0001 99.2346 36.9861 101.424 36.9861C102.974 36.9861 103.794 36.9416 103.907 36.8513C104 36.7773 104.306 36.6792 104.587 36.6334C104.868 36.5878 105.097 36.5101 105.097 36.4609C105.097 36.4119 105.312 36.3084 105.573 36.2311C106.292 36.0185 107.704 35.0309 108.613 34.1049C109.059 33.6501 109.424 33.2433 109.424 33.2006C109.424 33.158 109.521 33.0198 109.641 32.8936C110.159 32.3449 110.917 30.4795 111.23 28.9834C111.385 28.2441 111.327 25.933 111.13 24.9821C110.862 23.6887 110.247 22.1955 109.483 20.9807C109.319 20.7199 109.147 20.4265 109.101 20.3287C109.055 20.2308 108.96 20.0898 108.89 20.0151C108.82 19.9404 108.628 19.704 108.462 19.4897C107.768 18.5898 106.271 17.2261 105.265 16.577C104.875 16.3259 104.53 16.0908 104.497 16.0545C104.443 15.9957 103.821 15.6667 103.213 15.3756C103.093 15.318 102.814 15.1817 102.594 15.0728C102.374 14.964 102.123 14.875 102.037 14.875C101.951 14.875 101.725 14.7953 101.536 14.6978C101.347 14.6005 101.1 14.5205 100.987 14.52C100.874 14.5196 100.658 14.4646 100.506 14.3978C100.17 14.2496 97.4634 13.9347 97.0456 13.9951C96.8803 14.019 96.1773 14.0961 95.4833 14.1667Z" fill="#FF008C"/>
<path fill-rule="evenodd" clip-rule="evenodd" d="M110.566 4.05459C111.05 4.12382 112.032 4.39283 112.549 4.59794C113.555 4.99736 113.75 5.09186 113.75 5.17911C113.75 5.23009 113.806 5.27171 113.874 5.27171C113.941 5.27171 114.268 5.47124 114.599 5.71524L115.201 6.15876L115.121 6.98974C115.077 7.44679 114.999 7.87407 114.948 7.93928C114.896 8.00449 114.816 8.31191 114.769 8.62241C114.722 8.93304 114.636 9.21627 114.578 9.25184C114.519 9.28753 114.471 9.42363 114.471 9.5544C114.471 9.76544 114.272 10.2547 113.669 11.5197C113.446 11.9888 113.51 12.0994 114.064 12.2021C114.304 12.2465 114.589 12.33 114.696 12.3876C114.804 12.4452 115.108 12.5806 115.373 12.6887C116.293 13.0646 117.301 13.5997 118.119 14.1467C118.571 14.4495 119.023 14.7505 119.122 14.8157C119.962 15.366 122.403 17.7927 122.403 18.077C122.403 18.1416 122.446 18.1946 122.497 18.1946C122.549 18.1946 122.686 18.3528 122.802 18.546C122.918 18.7393 123.078 18.9684 123.158 19.0552C123.455 19.3759 124.807 22.0007 124.807 22.2557C124.807 22.3478 124.846 22.4624 124.895 22.5101C125.129 22.741 125.614 24.6236 125.829 26.138C126.29 29.3784 125.815 32.5924 124.431 35.6014C124.241 36.0135 124.086 36.3958 124.086 36.451C124.086 36.5062 124.045 36.5692 123.995 36.591C123.946 36.6127 123.771 36.8838 123.607 37.1936C123.443 37.5034 123.268 37.7568 123.217 37.7568C123.166 37.7568 123.124 37.8142 123.124 37.8843C123.124 38.2694 120.541 41.0624 119.399 41.9127C119.101 42.1341 118.831 42.3481 118.798 42.3884C118.653 42.5653 114.946 45.226 114.844 45.226C114.782 45.226 114.714 45.2659 114.692 45.3149C114.64 45.4292 112.619 46.749 112.34 46.8507C112.223 46.893 112.101 46.9584 112.068 46.9957C111.981 47.0942 111.603 47.313 110.986 47.6222C110.689 47.7713 110.418 47.9244 110.385 47.9623C110.352 48.0001 110.055 48.1603 109.724 48.3181C109.394 48.4758 109.105 48.6449 109.083 48.6938C109.061 48.7427 108.971 48.7827 108.883 48.7827C108.795 48.7827 108.461 48.9104 108.142 49.0664C106.919 49.664 105.328 50.3056 104.256 50.6332C103.893 50.7443 103.473 50.8895 103.324 50.9559C103.114 51.0492 102.814 51.0014 102.002 50.7449C101.424 50.5625 100.781 50.3399 100.573 50.2501C100.364 50.1604 100.118 50.0869 100.026 50.0869C99.9333 50.0869 99.8063 50.0423 99.7436 49.9879C99.6807 49.9335 99.359 49.7914 99.0285 49.6722C97.3544 49.0681 93.76 47.3087 92.3586 46.4074C92.2595 46.3436 92.0972 46.2557 91.9981 46.212C91.8989 46.1683 91.7908 46.1019 91.7577 46.0645C91.6527 45.9459 90.9291 45.4631 90.8562 45.4631C90.8177 45.4631 90.7208 45.4102 90.641 45.3455C90.5612 45.2809 90.0542 44.911 89.5145 44.5235C88.4835 43.7834 88.2552 43.6015 87.2722 42.7362C86.0136 41.6286 83.7058 39.2581 83.7058 39.073C83.7058 39.0121 83.6636 38.9444 83.612 38.9226C83.487 38.8699 82.3839 37.2983 82.3839 37.1729C82.3839 37.1187 82.3027 37.0081 82.2036 36.9269C82.1045 36.8457 82.0233 36.6791 82.0233 36.5567C82.0233 36.4343 81.9736 36.3341 81.9126 36.3341C81.8518 36.3341 81.7664 36.174 81.7229 35.9784C81.6794 35.7828 81.5939 35.6227 81.5331 35.6227C81.4722 35.6227 81.4224 35.5642 81.4224 35.4924C81.4224 35.4208 81.3479 35.194 81.2568 34.9886C80.9145 34.2164 80.5102 32.8987 80.2147 31.5917C79.9601 30.4659 79.9233 27.1348 80.1507 25.8105C80.345 24.6792 80.6356 23.5421 80.8283 23.159C80.8816 23.0529 80.962 22.7729 81.007 22.5366C81.0519 22.3003 81.1368 22.107 81.1954 22.107C81.2542 22.107 81.3023 22.0259 81.3023 21.9267C81.3023 21.7074 82.022 20.2125 82.2327 19.9942C82.3158 19.908 82.3839 19.7612 82.3839 19.6682C82.3839 19.575 82.4379 19.4987 82.504 19.4987C82.5701 19.4987 82.6242 19.4449 82.6242 19.379C82.6242 19.2278 83.8009 17.6529 84.3293 17.0968C84.5483 16.8664 84.8395 16.5523 84.9765 16.3989C85.1136 16.2454 85.4651 15.9248 85.7576 15.6865C86.0503 15.4482 86.4248 15.1424 86.5901 15.007C86.7553 14.8715 86.9452 14.7162 87.0122 14.6618C87.6193 14.1672 89.7729 12.9824 90.6161 12.6791C90.9465 12.5602 91.271 12.4249 91.3371 12.3785C91.4032 12.332 91.6466 12.2549 91.8779 12.2072C92.1093 12.1594 92.3526 12.0867 92.4187 12.0457C92.8142 11.8004 96.1353 11.3253 97.4866 11.3207L98.2282 11.3182L97.8335 10.5179C96.5784 7.97366 96.4396 6.2823 97.363 4.78609C98.279 3.30186 100.281 4.14505 99.8068 5.81542C99.7251 6.10328 99.6112 6.33874 99.5537 6.33874C99.4077 6.33874 99.4221 7.49385 99.5693 7.5836C99.6354 7.62391 99.6895 7.76571 99.6895 7.89873C99.6895 8.20366 100.188 9.33543 100.761 10.3316C101.087 10.8987 101.181 10.8612 101.547 10.0141C101.674 9.72062 101.838 9.40051 101.911 9.3027C101.985 9.20489 102.149 8.92486 102.277 8.68027C102.404 8.4358 102.55 8.23568 102.601 8.23568C102.652 8.23568 102.694 8.17663 102.694 8.10455C102.694 7.8155 104.71 5.62738 104.976 5.62738C105.032 5.62738 105.095 5.5853 105.118 5.53384C105.165 5.42358 106.202 4.80103 106.72 4.57233C107.765 4.11043 109.408 3.8892 110.566 4.05459ZM108.523 6.81297C108.482 6.87818 108.338 6.93153 108.203 6.93153C107.737 6.93153 106.545 7.72018 105.792 8.52686C105.189 9.17229 105.158 9.21212 105.065 9.4509C105.021 9.56507 104.929 9.65838 104.861 9.65838C104.793 9.65838 104.737 9.73461 104.737 9.8278C104.737 9.92087 104.669 10.0686 104.587 10.156C104.329 10.4287 104.016 11.0481 104.016 11.2861C104.016 11.523 104.756 11.9173 105.999 12.3422C106.668 12.571 108.892 12.6449 109.038 12.4432C109.085 12.3787 109.332 12.2213 109.586 12.0933C109.841 11.9653 110.247 11.6384 110.488 11.3669C110.926 10.8731 111.707 9.52903 111.708 9.265C111.708 9.18794 111.784 8.98295 111.876 8.80962C111.967 8.63617 112.078 8.23603 112.122 7.92043L112.201 7.34649L111.713 7.13901C111.445 7.02495 111.12 6.93153 110.992 6.93153C110.865 6.93153 110.727 6.87818 110.686 6.81297C110.645 6.74776 110.158 6.69441 109.604 6.69441C109.05 6.69441 108.563 6.74776 108.523 6.81297ZM95.4833 14.1667C94.7892 14.2371 94.0591 14.3438 93.8609 14.4038C92.6855 14.759 91.9533 15.017 91.3609 15.2842C90.9928 15.4503 90.634 15.5863 90.5637 15.5863C90.4933 15.5863 90.4358 15.6397 90.4358 15.7049C90.4358 15.7701 90.3681 15.8235 90.2856 15.8237C90.1353 15.824 89.0655 16.5029 88.2726 17.1013C87.2269 17.8901 85.0278 20.3125 85.0278 20.6753C85.0278 20.7455 84.9773 20.8029 84.9156 20.8029C84.854 20.8029 84.7657 20.9229 84.7193 21.0697C84.6728 21.2164 84.6016 21.3631 84.5609 21.3957C84.2297 21.6613 82.9831 24.9594 82.9842 25.5672C82.9845 25.7423 82.9262 26.0357 82.8546 26.2192C82.6776 26.6732 82.6826 29.9984 82.8616 30.7823C83.3122 32.757 83.5393 33.4478 84.1797 34.7928C85.0938 36.713 87.0254 38.9708 89.66 41.199C90.162 41.6236 91.9833 42.9513 92.3837 43.1848C92.5682 43.2922 92.7192 43.422 92.7192 43.4732C92.7192 43.5243 92.7738 43.5662 92.8407 43.5662C92.9075 43.5662 93.443 43.8596 94.0307 44.2182C94.6183 44.5769 95.1541 44.8703 95.2211 44.8703C95.2882 44.8703 95.361 44.9103 95.3831 44.9592C95.423 45.0478 97.218 45.9435 98.2473 46.3884C98.5448 46.517 99.0856 46.7557 99.4491 46.9191C99.8127 47.0824 100.353 47.2991 100.651 47.4007C100.948 47.5023 101.566 47.7221 102.024 47.889C102.84 48.1864 103.556 48.2075 103.724 47.9394C103.76 47.8816 103.873 47.8343 103.975 47.8343C104.077 47.8343 104.33 47.761 104.539 47.6714C104.747 47.5817 105.35 47.3307 105.879 47.1135C107.041 46.6362 109.997 45.1545 110.145 44.9752C110.178 44.935 110.327 44.8648 110.475 44.819C110.624 44.7732 110.746 44.6861 110.746 44.6252C110.746 44.5644 110.816 44.5146 110.903 44.5146C110.989 44.5146 111.618 44.1412 112.3 43.6847C112.982 43.2283 113.562 42.8548 113.59 42.8548C113.618 42.8548 113.706 42.7998 113.785 42.7326C113.865 42.6653 114.424 42.2519 115.027 41.8137C117.282 40.1756 118.039 39.5711 118.922 38.7052C119.791 37.8539 120.536 36.9993 120.77 36.5867C120.831 36.4804 120.912 36.3667 120.951 36.3341C121.075 36.2293 121.559 35.35 121.963 34.4964C122.309 33.7643 122.497 33.2342 122.889 31.8881C123.099 31.1681 123.294 29.4876 123.288 28.4499C123.281 27.257 123.045 25.2062 122.893 25.0166C122.838 24.9488 122.766 24.7331 122.732 24.5375C122.604 23.7933 121.665 21.6966 121.071 20.8291C120.878 20.5473 120.721 20.2889 120.721 20.2549C120.721 20.221 120.653 20.1234 120.57 20.0383C120.488 19.9532 120.339 19.7586 120.24 19.6059C119.945 19.1523 117.928 17.1901 117.506 16.9463C117.291 16.8223 117.115 16.6789 117.115 16.6277C117.115 16.5766 117.039 16.5348 116.945 16.5348C116.851 16.5348 116.757 16.4897 116.735 16.4346C116.689 16.32 116.482 16.2085 114.932 15.4608C114.315 15.1634 113.486 14.825 113.089 14.7089C112.693 14.5926 112.202 14.449 111.999 14.3898C111.463 14.2336 111.36 14.2492 110.628 14.5978C110.263 14.7713 109.875 14.9556 109.765 15.0073C109.655 15.059 109.29 15.1372 108.954 15.1812C108.617 15.2252 108.342 15.3103 108.342 15.3704C108.342 15.4305 108.682 15.8104 109.097 16.2147C110.061 17.1531 110.588 17.7492 111.11 18.491C111.339 18.817 111.568 19.1016 111.617 19.1233C111.667 19.1451 111.707 19.2346 111.707 19.3223C111.707 19.4101 111.776 19.5523 111.859 19.6385C112.111 19.8975 112.985 21.7459 113.334 22.7591C113.66 23.703 113.721 23.9688 113.994 25.6638C114.154 26.6554 114.089 28.8191 113.872 29.7541C113.697 30.503 113.018 32.5799 112.921 32.6588C112.881 32.6914 112.718 32.9848 112.558 33.3108C112.398 33.6369 112.236 33.9303 112.198 33.9629C112.159 33.9955 112.024 34.2051 111.898 34.4287C111.222 35.6238 109.084 37.5434 107.561 38.3224C106.676 38.7752 105.762 39.1519 105.338 39.239C105.107 39.2865 104.863 39.3647 104.797 39.4127C104.731 39.4607 103.959 39.5982 103.081 39.7183C101.582 39.9234 101.412 39.9251 100.281 39.746C98.8713 39.5226 98.5425 39.3461 98.372 38.7216C98.1966 38.0791 98.3334 37.5517 98.755 37.2443C99.0896 37.0001 99.2346 36.9861 101.424 36.9861C102.974 36.9861 103.794 36.9416 103.907 36.8513C104 36.7773 104.306 36.6792 104.587 36.6334C104.868 36.5878 105.097 36.5101 105.097 36.4609C105.097 36.4119 105.312 36.3084 105.573 36.2311C106.292 36.0185 107.704 35.0309 108.613 34.1049C109.059 33.6501 109.424 33.2433 109.424 33.2006C109.424 33.158 109.521 33.0198 109.641 32.8936C110.159 32.3449 110.917 30.4795 111.23 28.9834C111.385 28.2441 111.327 25.933 111.13 24.9821C110.862 23.6887 110.247 22.1955 109.483 20.9807C109.319 20.7199 109.147 20.4265 109.101 20.3287C109.055 20.2308 108.96 20.0898 108.89 20.0151C108.82 19.9404 108.628 19.704 108.462 19.4897C107.768 18.5898 106.271 17.2261 105.265 16.577C104.875 16.3259 104.53 16.0908 104.497 16.0545C104.443 15.9957 103.821 15.6667 103.213 15.3756C103.093 15.318 102.814 15.1817 102.594 15.0728C102.374 14.964 102.123 14.875 102.037 14.875C101.951 14.875 101.725 14.7953 101.536 14.6978C101.347 14.6005 101.1 14.5205 100.987 14.52C100.874 14.5196 100.658 14.4646 100.506 14.3978C100.17 14.2496 97.4634 13.9347 97.0456 13.9951C96.8803 14.019 96.1773 14.0961 95.4833 14.1667Z" stroke="#FF008C" stroke-width="2" mask="url(#path-1-outside-1)"/>
<path d="M17.1241 4.13542C15.2875 2.7474 13.0727 2 10.6958 2C4.80772 2 0 6.7513 0 12.5703V39.263C0 41.0781 1.45852 42.5195 3.29518 42.5195C5.07782 42.5195 6.53635 41.0781 6.53635 39.263V25.7565H11.6682C13.5048 25.7565 14.9634 24.2617 14.9634 22.5C14.9634 20.6849 13.5048 19.2435 11.6682 19.2435H6.53635V14.1185C6.53635 13.8516 6.53634 13.5846 6.48233 13.3177C6.53634 13.1042 6.53635 12.8372 6.53635 12.5703C6.53635 10.3281 8.42702 8.51302 10.6958 8.51302C11.6142 8.51302 12.4785 8.77995 13.1807 9.3138C14.6393 10.3815 16.8 9.90104 17.7724 8.67318C18.6907 7.4987 18.5827 5.20312 17.1241 4.13542ZM22.31 9.63411C20.4733 9.63411 19.0148 11.0755 19.0148 12.8906V13.0508C19.0148 14.8659 20.4733 16.3073 22.31 16.3073C24.0926 16.3073 25.5512 14.8659 25.5512 13.0508V12.8906C25.5512 11.0755 24.0926 9.63411 22.31 9.63411ZM22.31 19.2969C20.4733 19.2969 19.0148 20.7383 19.0148 22.5V39.263C19.0148 41.0781 20.4733 42.5195 22.31 42.5195C24.0926 42.5195 25.5512 41.0781 25.5512 39.263V22.5C25.5512 20.7383 24.0926 19.2969 22.31 19.2969Z" fill="black"/>
<path d="M41.3506 36.5404C40.9724 36.5404 40.4863 36.5938 40.2162 36.3268C39.838 36.0065 39.9461 35.3659 39.838 34.9388V22.2331H41.6207C43.4033 22.2331 44.8618 20.7917 44.8618 19.0299C44.8618 17.2682 43.4033 15.8268 41.6207 15.8268H39.838V5.63021C39.838 3.86849 38.3795 2.42708 36.5969 2.42708C34.8142 2.42708 33.3557 3.86849 33.3557 5.63021V15.8268H31.0329C29.2502 15.8268 27.7917 17.2682 27.7917 19.0299C27.7917 20.7917 29.2502 22.2331 31.0329 22.2331H33.3557V35.6862C33.3557 37.3411 34.112 39.263 35.1924 40.4909C36.4348 41.8789 38.1634 42.6263 39.9461 42.8932C40.4322 42.9466 40.8644 42.9466 41.3506 42.9466C43.1332 42.9466 44.5917 41.5586 44.5917 39.7435C44.5917 37.9818 43.1332 36.5404 41.3506 36.5404Z" fill="black"/>
<path d="M61.3871 43C53.9324 43 47.8283 37.0208 47.8283 29.6003C47.8283 22.2331 53.9324 16.2005 61.3871 16.2005C68.8418 16.2005 74.946 22.2331 75 29.6536C74.946 37.0208 68.8418 43 61.3871 43ZM61.3871 22.7669C57.5517 22.7669 54.4726 25.8099 54.4726 29.6003C54.4726 33.3906 57.5517 36.4336 61.3871 36.4336C65.2225 36.4336 68.3016 33.3906 68.3016 29.6003C68.3016 25.8099 65.2225 22.7669 61.3871 22.7669Z" fill="black"/>
<path d="M145.915 14.0228C143.473 14.0228 141.249 14.7321 139.295 15.9871C138.861 14.6776 137.667 13.75 136.256 13.75C134.465 13.75 133 15.2232 133 17.0238V37.8671C133 39.6677 134.465 41.1409 136.256 41.1409C138.047 41.1409 139.512 39.6677 139.512 37.8671V28.5913C139.512 24.8264 141.683 20.5704 145.915 20.5704C149.334 20.5704 152.156 23.6806 152.156 27.5546V37.8671C152.156 39.6677 153.567 41.1409 155.412 41.1409C157.203 41.1409 158.614 39.6677 158.614 37.8671V27.5546C158.614 20.0794 152.916 14.0228 145.915 14.0228Z" fill="black"/>
<path d="M183.895 14.0774C182.213 14.0774 180.748 15.5506 180.748 17.3512V27.2272C180.748 30.9921 177.98 34.1022 174.561 34.1022C171.197 34.1022 168.429 30.9921 168.429 27.2272V17.4603C168.429 15.7143 167.018 14.1865 165.282 14.1865C163.545 14.1865 162.134 15.7143 162.134 17.4603V27.2272C162.134 34.6478 167.724 40.6498 174.561 40.6498C176.841 40.6498 178.957 39.995 180.748 38.9583V41.1954C180.748 45.1786 177.6 48.4524 173.747 48.4524C171.74 48.4524 169.786 47.5248 168.429 45.9425C167.29 44.5238 165.282 44.3601 163.979 45.5605C162.677 46.7609 162.514 48.8343 163.654 50.1984C166.204 53.254 169.84 55 173.747 55C181.073 55 187.097 48.7798 187.097 41.1954V17.3512C187.097 15.5506 185.686 14.0774 183.895 14.0774Z" fill="black"/>
<path d="M214.944 13.9683C213.153 13.9683 212.068 15.3869 212.068 17.0784V17.3512C209.735 15.4415 207.021 14.1865 203.765 14.1865C196.494 14.1865 190.633 20.1339 190.633 27.3909C190.633 34.6478 196.494 40.5407 203.765 40.5407C207.021 40.5407 209.735 39.3403 212.068 37.3214V37.9762C212.068 39.6677 213.153 41.0863 214.944 41.0863C216.735 41.0863 218.092 39.6677 218.092 37.9762V17.0784C218.092 15.3869 216.735 13.9683 214.944 13.9683ZM203.765 34.1567C200.021 34.1567 196.928 31.1558 196.928 27.3909C196.928 23.626 200.021 20.5704 203.765 20.5704C207.455 20.5704 210.549 23.626 210.549 27.3909C210.549 31.1558 207.455 34.1567 203.765 34.1567Z" fill="black"/>
<path d="M232.911 41.3591C229.438 41.3591 225.965 39.9405 224.174 38.249C222.871 37.0486 222.763 34.9752 224.011 33.6657C225.205 32.3016 227.267 32.247 228.569 33.4474C229.546 34.375 233.182 35.63 235.244 34.2659C235.787 33.9385 236.112 33.3383 236.112 32.7381C236.112 31.9742 235.461 31.4286 234.919 31.2103C234.43 30.9375 233.562 30.9375 232.585 30.9375C231.283 30.9375 229.818 30.8829 228.298 30.3373C225.476 29.4097 223.197 26.4633 222.98 23.626C222.709 20.1885 224.174 18.0605 225.422 16.8601C228.135 14.3502 232.097 13.9683 234.973 14.4593C237.144 14.8413 238.772 15.6052 240.128 16.8601C241.431 18.0605 241.539 20.1339 240.345 21.4435C239.64 22.2073 238.609 22.5893 237.578 22.4802C237.089 22.4256 236.601 22.2619 236.167 21.9891C235.407 21.4435 234.864 21.0615 233.888 20.8978C232.26 20.625 229.221 20.7341 229.438 23.0804C229.492 23.3532 229.98 24.0625 230.414 24.2262C230.957 24.3899 231.771 24.3899 232.639 24.3899C234.05 24.4444 235.841 24.4444 237.632 25.2629C240.617 26.627 242.57 29.5734 242.57 32.7381C242.57 35.5208 241.159 38.1399 238.826 39.7222C236.981 40.9226 234.973 41.3591 232.911 41.3591Z" fill="black"/>
<path d="M270.721 26.1905C270.721 19.4246 265.295 13.9683 258.566 13.9683C256.558 13.9683 254.658 14.4593 252.976 15.3323V3.32837C252.976 1.52778 251.511 0 249.666 0C247.875 0 246.356 1.52778 246.356 3.32837V38.1399C246.356 39.9405 247.875 41.4137 249.666 41.4137C251.511 41.4137 252.976 39.9405 252.976 38.1399V26.1905C252.976 23.0804 255.472 20.5704 258.566 20.5704C261.659 20.5704 264.155 23.0804 264.155 26.1905V38.1399C264.155 39.9405 265.62 41.4137 267.465 41.4137C269.256 41.4137 270.721 39.9405 270.721 38.1399V26.1905Z" fill="black"/>
<path d="M297.539 35.3571L287.445 26.0268L296.508 19.8611C297.973 18.7698 298.353 16.6964 297.268 15.2232C296.236 13.6954 294.174 13.3681 292.655 14.4048L281.964 21.8254V3.38294C281.964 1.52778 280.499 0.0545628 278.654 0.0545628C276.809 0.0545628 275.344 1.52778 275.344 3.38294V38.1399C275.344 39.995 276.809 41.4683 278.654 41.4683C280.499 41.4683 281.964 39.995 281.964 38.1399V30.0099L293.035 40.2679C293.686 40.8681 294.446 41.1409 295.26 41.1409C296.128 41.1409 297.05 40.7589 297.702 40.1042C298.95 38.6855 298.841 36.6121 297.539 35.3571Z" fill="black"/>
<path d="M304.69 9.22123C302.79 9.22123 301.271 7.69345 301.271 5.89286V5.62004C301.271 3.71032 302.79 2.2371 304.69 2.2371C306.481 2.2371 308 3.71032 308 5.62004V5.89286C308 7.69345 306.481 9.22123 304.69 9.22123ZM304.69 41.25C302.79 41.25 301.271 39.7222 301.271 37.8671V16.8056C301.271 14.9504 302.79 13.4772 304.69 13.4772C306.481 13.4772 308 14.9504 308 16.8056V37.8671C308 39.7222 306.481 41.25 304.69 41.25Z" fill="black"/>
</svg>
